<svg width="258" height="43" viewBox="0 0 258 43" fill="none" xmlns="http://www.w3.org/2000/svg">
<path d="M73.66 42.97C70.32 42.97 64.82 41.92 62.83 40.98V5.74998L58.97 2.58998V1.35999L66.64 0.599991C68.28 0.479991 69.22 0.419983 69.57 0.419983C70.33 0.419983 70.56 0.769981 70.56 1.58998V19.79C73.02 17.8 75.83 15.34 79.69 15.34C86.48 15.34 89.52 20.43 89.52 27.45C89.52 35.41 84.9 42.96 73.66 42.96V42.97ZM76.64 40.8C79.62 40.8 81.38 36.64 81.38 30.09C81.38 23.54 79.45 20.2 74.53 20.2C73.07 20.2 71.95 20.43 70.55 21.02V36.59C72.01 39.28 74.3 40.8 76.64 40.8V40.8Z" fill="black"/>
<path d="M104.48 42.97C97.22 42.97 91.78 38.64 91.78 29.57C91.78 20.5 98.28 15.35 105.42 15.35C111.68 15.35 115.89 18.8 115.89 24.95C115.89 25.94 115.83 27 115.6 28.11H99.74C100.21 35.13 104.36 37.94 108.69 37.94C111.38 37.94 113.08 37.3 114.95 36.36L115.83 37.41C113.66 39.93 109.8 42.97 104.48 42.97ZM99.74 26.41L107.82 25.88C107.94 24.89 108 23.95 108 23.07C108 19.73 106.95 17.1 104.49 17.1C101.39 17.1 99.87 21.14 99.75 26.4L99.74 26.41Z" fill="black"/>
<path d="M138.62 42.97C136.34 42.97 133.94 41.68 133.94 37.82C131.83 39.87 129.14 42.97 124.87 42.97C121.48 42.97 119.02 40.8 119.02 37.59C119.02 32.26 123.88 30.98 131.25 28.29C131.84 28.06 133.42 27.53 133.94 27.35V24.42C133.94 20.73 132.48 17.87 128.97 17.87C126.8 17.87 125.22 18.57 125.22 20.56C125.22 22.2 126.33 23.95 127.91 24.25C125.86 26.18 123.7 27.23 122 27.23C120.3 27.23 119.13 26.18 119.13 24.01C119.13 18.86 127.21 15.35 132.88 15.35C140.37 15.35 141.66 19.74 141.66 24.77V38L145.17 38.82V39.93C143.3 41.51 140.78 42.97 138.62 42.97V42.97ZM129.9 37.7C131.54 37.7 132.71 37.29 133.94 36.65V29.04C132.71 29.57 131.42 30.15 130.19 30.74C127.67 31.97 126.33 33.2 126.33 34.95C126.33 37.06 127.97 37.7 129.9 37.7V37.7Z" fill="black"/>
<path d="M153.59 42.97C150.9 42.97 147.97 41.92 147.97 36.36V18.92H144.63V17.05L148.61 15.35L154.23 8.08997H155.69V16.28H161.78V19.03H155.69V32.61C155.69 36.36 157.04 37.7 159.03 37.7C160.14 37.7 160.96 37.23 161.9 36.7L162.72 37.93C160.73 39.98 157.45 42.96 153.59 42.96V42.97Z" fill="black"/>
<path d="M179.92 42.39H175.59L166.11 18.81L163.59 17.29V16.24C165.87 16.36 168.74 16.42 171.49 16.42C173.95 16.42 176.29 16.36 178.22 16.24V17.29L174.71 19.22L181.03 35.25L186.47 18.92L183.19 17.28V16.23C185.12 16.35 186.7 16.41 188.28 16.41C189.68 16.41 191.09 16.35 192.73 16.23V17.28L190.27 18.8L179.91 42.38L179.92 42.39Z" fill="black"/>
<path d="M203.84 42.97C196.58 42.97 191.14 38.64 191.14 29.57C191.14 20.5 197.64 15.35 204.78 15.35C211.04 15.35 215.25 18.8 215.25 24.95C215.25 25.94 215.19 27 214.96 28.11H199.1C199.57 35.13 203.72 37.94 208.05 37.94C210.74 37.94 212.44 37.3 214.31 36.36L215.19 37.41C213.02 39.93 209.16 42.97 203.84 42.97V42.97ZM199.1 26.41L207.18 25.88C207.3 24.89 207.36 23.95 207.36 23.07C207.36 19.73 206.31 17.1 203.85 17.1C200.75 17.1 199.23 21.14 199.11 26.4L199.1 26.41Z" fill="black"/>
<path d="M218.64 41.63L218.41 32.62H219.81L224.49 40.23C225.6 40.87 226.6 41.05 228 41.05C230.28 41.05 231.98 39.88 231.98 37.95C231.98 35.14 229.29 33.8 225.48 31.75C221.21 29.47 218.16 28.12 218.16 23.32C218.16 18.52 222.78 15.36 228.87 15.36C231.97 15.36 235.07 16.12 236.83 16.88V24.14L235.72 24.26L230.69 17.71C230.05 17.42 229.23 17.3 228.23 17.3C226.47 17.3 224.89 18.12 224.89 20.11C224.89 22.28 227.17 23.8 230.98 25.73C235.19 27.84 238.53 30.12 238.53 34.68C238.53 39.24 234.2 42.99 227.76 42.99C224.48 42.99 221.44 42.46 218.63 41.64L218.64 41.63Z" fill="black"/>
<path d="M248.73 42.97C246.04 42.97 243.11 41.92 243.11 36.36V18.92H239.77V17.05L243.75 15.35L249.37 8.08997H250.83V16.28H256.92V19.03H250.83V32.61C250.83 36.36 252.18 37.7 254.17 37.7C255.28 37.7 256.1 37.23 257.04 36.7L257.86 37.93C255.87 39.98 252.59 42.96 248.73 42.96V42.97Z" fill="black"/>
<path d="M40.36 36.65L40.59 40.7C40.6 40.88 40.46 41.03 40.28 41.03H0.18C0.0800003 41.03 0 40.95 0 40.85V0.770005C0 0.590005 0.150002 0.450007 0.330002 0.460007L4.38 0.679993C4.54 0.679993 4.67 0.830006 4.67 0.990006V28.84C4.67 29.16 5.09 29.27 5.25 29L18.85 5.42999C18.94 5.27999 19.13 5.23001 19.28 5.32001L22.75 7.42999C22.89 7.51999 22.94 7.70001 22.86 7.85001L9.31 31.32C9.15 31.6 9.46 31.9 9.73 31.74L33.19 18.19C33.34 18.11 33.52 18.15 33.61 18.3L35.71 21.77C35.8 21.92 35.75 22.11 35.6 22.2L12.06 35.79C11.78 35.95 11.9 36.37 12.22 36.37H40.03C40.19 36.37 40.33 36.5 40.34 36.66L40.36 36.65Z" fill="black"/>
</svg>
